<svg width="44" height="42" viewBox="0 0 44 42" fill="none" xmlns="http://www.w3.org/2000/svg">
<path fill-rule="evenodd" clip-rule="evenodd" d="M37.8667 0.625004C37.9038 0.625006 37.9411 0.625009 37.9784 0.625009H41.3125C42.3825 0.625009 43.25 1.49246 43.25 2.56251C43.25 3.63256 42.3825 4.50001 41.3125 4.50001H37.9784C36.409 4.50001 35.408 4.50341 34.659 4.59536C33.963 4.68081 33.7188 4.81988 33.5733 4.93916C33.4278 5.05844 33.2436 5.27061 33.0233 5.93634C32.7862 6.65273 32.5866 7.63364 32.2788 9.17258L31.5873 12.63C31.3775 13.6793 30.3568 14.3597 29.3075 14.1499C28.2582 13.94 27.5777 12.9193 27.7876 11.87L28.4791 8.41263C28.4864 8.37599 28.4937 8.33947 28.501 8.30307C28.7804 6.90565 29.0238 5.68816 29.3445 4.71905C29.6902 3.67404 30.1908 2.70148 31.1166 1.94246C32.0425 1.18344 33.0943 0.883362 34.1869 0.749234C35.2 0.624847 36.4416 0.62492 37.8667 0.625004Z" fill="white"/>
<path d="M3.8593 15.4234C4.16361 12.0759 4.31577 10.4022 5.4257 9.38861C6.53564 8.375 8.21625 8.375 11.5775 8.375H32.3642C34.6941 8.375 35.859 8.375 36.4406 9.13645C37.0222 9.8979 36.7157 11.0218 36.1027 13.2696L33.1826 23.9767C32.4335 26.7232 32.059 28.0965 31.0174 28.892C29.9759 29.6875 28.5525 29.6875 25.7056 29.6875H11.0491C7.08092 29.6875 5.09684 29.6875 3.94442 28.4256C2.792 27.1636 2.97163 25.1877 3.33089 21.2358L3.8593 15.4234Z" fill="white"/>
<path d="M35.5 35.5C35.5 37.6401 33.7651 39.375 31.625 39.375C29.4849 39.375 27.75 37.6401 27.75 35.5C27.75 33.3599 29.4849 31.625 31.625 31.625C33.7651 31.625 35.5 33.3599 35.5 35.5Z" fill="white"/>
<path fill-rule="evenodd" clip-rule="evenodd" d="M27.1047 31.8457C26.7005 31.7028 26.2656 31.625 25.8125 31.625C23.6724 31.625 21.9375 33.3599 21.9375 35.5C21.9375 37.6401 23.6724 39.375 25.8125 39.375C26.2656 39.375 26.7005 39.2972 27.1047 39.1543C26.2966 38.1559 25.8125 36.8845 25.8125 35.5C25.8125 34.1155 26.2966 32.8441 27.1047 31.8457ZM28.7187 32.9369C29.3217 33.62 29.6875 34.5173 29.6875 35.5C29.6875 36.4827 29.3217 37.38 28.7187 38.0631C28.1158 37.38 27.75 36.4827 27.75 35.5C27.75 34.5173 28.1158 33.62 28.7187 32.9369Z" fill="white"/>
<path d="M14.1875 35.5C14.1875 37.6401 12.4526 39.375 10.3125 39.375C8.1724 39.375 6.4375 37.6401 6.4375 35.5C6.4375 33.3599 8.1724 31.625 10.3125 31.625C12.4526 31.625 14.1875 33.3599 14.1875 35.5Z" fill="white"/>
<path fill-rule="evenodd" clip-rule="evenodd" d="M5.79218 31.8457C5.38803 31.7028 4.95309 31.625 4.5 31.625C2.3599 31.625 0.625 33.3599 0.625 35.5C0.625 37.6401 2.3599 39.375 4.5 39.375C4.95309 39.375 5.38803 39.2972 5.79218 39.1543C4.98406 38.1559 4.5 36.8845 4.5 35.5C4.5 34.1155 4.98406 32.8441 5.79218 31.8457ZM7.40625 32.9369C8.00916 33.62 8.375 34.5173 8.375 35.5C8.375 36.4827 8.00916 37.38 7.40625 38.0631C6.80334 37.38 6.4375 36.4827 6.4375 35.5C6.4375 34.5173 6.80334 33.62 7.40625 32.9369Z" fill="white"/>
</svg>
