<svg width="47" height="31" viewBox="0 0 47 31" fill="none" xmlns="http://www.w3.org/2000/svg">
<path fill-rule="evenodd" clip-rule="evenodd" d="M36.0141 19.9425C36.783 19.1858 38.0295 19.1858 38.7984 19.9425L45.689 26.7237C46.4578 27.4804 46.4578 28.7071 45.689 29.4638C44.9201 30.2204 43.6736 30.2204 42.9048 29.4638L36.0141 22.6825C35.2453 21.9259 35.2453 20.6991 36.0141 19.9425Z" fill="white"/>
<path d="M41.3438 12.5938C41.3438 19.5491 35.6144 25.1875 28.5469 25.1875C21.4794 25.1875 15.75 19.5491 15.75 12.5938C15.75 5.63841 21.4794 0 28.5469 0C35.6144 0 41.3438 5.63841 41.3438 12.5938Z" fill="white"/>
<path fill-rule="evenodd" clip-rule="evenodd" d="M0 1.9375C0 0.867448 0.881439 0 1.96875 0H13.7812C14.8686 0 15.75 0.867448 15.75 1.9375C15.75 3.00755 14.8686 3.875 13.7812 3.875H1.96875C0.881439 3.875 0 3.00755 0 1.9375Z" fill="white"/>
<path fill-rule="evenodd" clip-rule="evenodd" d="M0 9.6875C0 8.61745 0.881439 7.75 1.96875 7.75H9.84375C10.9311 7.75 11.8125 8.61745 11.8125 9.6875C11.8125 10.7576 10.9311 11.625 9.84375 11.625H1.96875C0.881439 11.625 0 10.7576 0 9.6875Z" fill="white"/>
<path fill-rule="evenodd" clip-rule="evenodd" d="M0 17.4375C0 16.3674 0.881439 15.5 1.96875 15.5H9.84375C10.9311 15.5 11.8125 16.3674 11.8125 17.4375C11.8125 18.5076 10.9311 19.375 9.84375 19.375H1.96875C0.881439 19.375 0 18.5076 0 17.4375Z" fill="white"/>
</svg>
