<svg width="43" height="30" viewBox="0 0 43 30" fill="none" xmlns="http://www.w3.org/2000/svg">
<path fill-rule="evenodd" clip-rule="evenodd" d="M0 7.75C0 4.09661 0 2.26992 1.13496 1.13496C2.26992 0 4.09661 0 7.75 0H34.875C38.5284 0 40.3551 0 41.49 1.13496C42.625 2.26992 42.625 4.09661 42.625 7.75V21.3125C42.625 24.9659 42.625 26.7926 41.49 27.9275C40.3551 29.0625 38.5284 29.0625 34.875 29.0625H7.75C4.09661 29.0625 2.26992 29.0625 1.13496 27.9275C0 26.7926 0 24.9659 0 21.3125V7.75ZM5.8125 19.375C5.8125 18.3049 6.67995 17.4375 7.75 17.4375H23.25C24.3201 17.4375 25.1875 18.3049 25.1875 19.375C25.1875 20.4451 24.3201 21.3125 23.25 21.3125H7.75C6.67995 21.3125 5.8125 20.4451 5.8125 19.375ZM31 17.4375C29.9299 17.4375 29.0625 18.3049 29.0625 19.375C29.0625 20.4451 29.9299 21.3125 31 21.3125H34.875C35.9451 21.3125 36.8125 20.4451 36.8125 19.375C36.8125 18.3049 35.9451 17.4375 34.875 17.4375H31ZM12.5938 12.2506C11.8837 13.0551 10.8449 13.5625 9.6875 13.5625C7.5474 13.5625 5.8125 11.8276 5.8125 9.6875C5.8125 7.5474 7.5474 5.8125 9.6875 5.8125C10.8449 5.8125 11.8837 6.31989 12.5938 7.12436C13.3038 6.31989 14.3426 5.8125 15.5 5.8125C17.6401 5.8125 19.375 7.5474 19.375 9.6875C19.375 11.8276 17.6401 13.5625 15.5 13.5625C14.3426 13.5625 13.3038 13.0551 12.5938 12.2506Z" fill="white"/>
</svg>
